<svg xmlns="http://www.w3.org/2000/svg" width="41" height="34" viewBox="0 0 41 34" fill="none">
  <path d="M10.268 33.2228C8.39067 33.2228 6.85467 32.8388 5.66 32.0708C4.46533 31.3028 3.484 30.3215 2.716 29.1268C1.86267 27.6761 1.26533 26.1828 0.924 24.6468C0.668 23.0255 0.54 21.7028 0.54 20.6788C0.54 16.4975 1.60667 12.7001 3.74 9.28681C5.87333 5.87348 9.20133 3.10014 13.724 0.966805L14.876 3.27081C12.2307 4.38014 9.92667 6.12947 7.964 8.51881C6.08667 10.9081 5.148 13.3401 5.148 15.8148C5.148 16.8388 5.276 17.7348 5.532 18.5028C6.89733 17.3935 8.476 16.8388 10.268 16.8388C12.4867 16.8388 14.4067 17.5641 16.028 19.0148C17.6493 20.4655 18.46 22.4708 18.46 25.0308C18.46 27.4201 17.6493 29.3828 16.028 30.9188C14.4067 32.4548 12.4867 33.2228 10.268 33.2228ZM32.028 33.2228C30.1507 33.2228 28.6147 32.8388 27.42 32.0708C26.2253 31.3028 25.244 30.3215 24.476 29.1268C23.6227 27.6761 23.0253 26.1828 22.684 24.6468C22.428 23.0255 22.3 21.7028 22.3 20.6788C22.3 16.4975 23.3667 12.7001 25.5 9.28681C27.6333 5.87348 30.9613 3.10014 35.484 0.966805L36.636 3.27081C33.9907 4.38014 31.6867 6.12947 29.724 8.51881C27.8467 10.9081 26.908 13.3401 26.908 15.8148C26.908 16.8388 27.036 17.7348 27.292 18.5028C28.6573 17.3935 30.236 16.8388 32.028 16.8388C34.2467 16.8388 36.1667 17.5641 37.788 19.0148C39.4093 20.4655 40.22 22.4708 40.22 25.0308C40.22 27.4201 39.4093 29.3828 37.788 30.9188C36.1667 32.4548 34.2467 33.2228 32.028 33.2228Z" fill="#FE7A15"/>
</svg>